<?xml version="1.0" encoding="utf-8"?>
<!-- Generator: Adobe Illustrator 16.0.0, SVG Export Plug-In . SVG Version: 6.00 Build 0)  -->
<!DOCTYPE svg PUBLIC "-//W3C//DTD SVG 1.1//EN" "http://www.w3.org/Graphics/SVG/1.1/DTD/svg11.dtd">
<svg version="1.1" id="Layer_1" xmlns="http://www.w3.org/2000/svg" xmlns:xlink="http://www.w3.org/1999/xlink" x="0px" y="0px"
	 width="364px" height="112px" viewBox="0 0 364 112" enable-background="new 0 0 364 112" xml:space="preserve">
<rect x="144" y="200.106" fill="#E51F1F" width="364" height="148"/>
<text transform="matrix(1 0 0 1 9.1748 87.1582)" fill="#FFFFFF" font-family="'Calibri-Bold'" font-size="120">L</text>
<text transform="matrix(1 0 0 1 59.875 87.1582)" fill="#FFFFFF" font-family="'Calibri-Bold'" font-size="120">e</text>
<text transform="matrix(1 0 0 1 118.0747 87.1582)" fill="#FFFFFF" font-family="'Calibri-Bold'" font-size="120">t</text>
<text transform="matrix(1 0 0 1 159.6748 87.1582)" fill="#FFFFFF" font-family="'Calibri-Bold'" font-size="120">z</text>
<text transform="matrix(1 0 0 1 205.4746 87.1582)" fill="#FFFFFF" font-family="'Calibri-Bold'" font-size="120">g</text>
<text transform="matrix(1 0 0 1 268.875 87.1582)" fill="#FFFFFF" font-family="'Calibri-Bold'" font-size="120">s</text>
<text transform="matrix(1 0 0 1 314.7754 87.1582)" fill="#FFFFFF" font-family="'Calibri-Bold'" font-size="120">t</text>
<path fill="#FFFFFF" d="M60.2,219.1c-8.1,0-15.4,0.601-22.6-0.199c-9.8-1.101-16.6-10.5-15.7-20.4c0.9-10,9.6-17.8,19.6-17.6
	c10,0.3,18.3,8,18.7,17.8C60.4,205.4,60.2,212.1,60.2,219.1z"/>
<g>
	<line fill="none" stroke="#FFFFFF" stroke-width="2" stroke-miterlimit="10" x1="8.2" y1="98.9" x2="203.1" y2="98.9"/>
	<line fill="none" stroke="#FFFFFF" stroke-width="2" stroke-miterlimit="10" x1="8.2" y1="104.9" x2="203.1" y2="104.9"/>
	<line fill="none" stroke="#FFFFFF" stroke-width="2" stroke-miterlimit="10" x1="8.2" y1="101.9" x2="203.1" y2="101.9"/>
</g>
</svg>