<?xml version="1.0" encoding="utf-8"?>
<!-- Generator: Adobe Illustrator 16.0.0, SVG Export Plug-In . SVG Version: 6.00 Build 0)  -->
<!DOCTYPE svg PUBLIC "-//W3C//DTD SVG 1.1//EN" "http://www.w3.org/Graphics/SVG/1.1/DTD/svg11.dtd">
<svg version="1.1" id="Capa_1" xmlns="http://www.w3.org/2000/svg" xmlns:xlink="http://www.w3.org/1999/xlink" x="0px" y="0px"
	 width="17.767px" height="17.767px" viewBox="0 0 17.767 17.767" enable-background="new 0 0 17.767 17.767" xml:space="preserve">
<g display="none">
	<path display="inline" d="M15.811,4.868c-0.715-1.226-1.686-2.196-2.911-2.912c-1.227-0.715-2.564-1.073-4.016-1.073
		c-1.452,0-2.79,0.357-4.016,1.073C3.642,2.671,2.672,3.642,1.957,4.868C1.241,6.093,0.883,7.432,0.883,8.883
		c0,1.452,0.358,2.79,1.073,4.015c0.715,1.227,1.686,2.196,2.912,2.912c1.226,0.715,2.564,1.072,4.016,1.072
		c1.452,0,2.791-0.357,4.016-1.072c1.226-0.716,2.195-1.686,2.911-2.912c0.715-1.226,1.073-2.563,1.073-4.015
		S16.525,6.093,15.811,4.868z M13.55,9.55c0,0.181-0.065,0.337-0.197,0.469c-0.133,0.132-0.289,0.198-0.469,0.198h-2.667v2.666
		c0,0.181-0.066,0.337-0.198,0.47C9.887,13.484,9.73,13.55,9.55,13.55H8.217c-0.181,0-0.337-0.065-0.469-0.197
		c-0.132-0.133-0.198-0.289-0.198-0.47v-2.666H4.883c-0.181,0-0.337-0.066-0.469-0.198S4.217,9.73,4.217,9.55V8.216
		c0-0.18,0.066-0.336,0.198-0.468C4.546,7.616,4.703,7.55,4.883,7.55H7.55V4.883c0-0.181,0.066-0.337,0.198-0.469
		s0.288-0.198,0.469-0.198H9.55c0.181,0,0.337,0.066,0.469,0.198s0.198,0.288,0.198,0.469V7.55h2.667
		c0.181,0,0.337,0.066,0.469,0.198c0.132,0.132,0.197,0.288,0.197,0.468V9.55z"/>
</g>
<g>
	<g>
		<g>
			<path fill="#009688" d="M8.625,1C4.414,1,1,4.414,1,8.625c0,4.211,3.414,7.625,7.625,7.625c4.211,0,7.625-3.414,7.625-7.625
				C16.25,4.414,12.836,1,8.625,1z M8.625,14.216c-3.088,0-5.592-2.503-5.592-5.591s2.503-5.592,5.592-5.592
				s5.591,2.503,5.591,5.592S11.713,14.216,8.625,14.216z"/>
			<path fill="#009688" d="M10.659,7.608H6.592c-0.562,0-1.017,0.456-1.017,1.017c0,0.561,0.455,1.017,1.017,1.017h4.067
				c0.562,0,1.017-0.456,1.017-1.017C11.675,8.063,11.22,7.608,10.659,7.608z"/>
		</g>
	</g>
</g>
</svg>
