<?xml version="1.0" encoding="utf-8"?>
<!-- Generator: Adobe Illustrator 16.0.0, SVG Export Plug-In . SVG Version: 6.00 Build 0)  -->
<!DOCTYPE svg PUBLIC "-//W3C//DTD SVG 1.1//EN" "http://www.w3.org/Graphics/SVG/1.1/DTD/svg11.dtd">
<svg version="1.1" id="Layer_1" xmlns="http://www.w3.org/2000/svg" xmlns:xlink="http://www.w3.org/1999/xlink" x="0px" y="0px"
	 width="219px" height="100px" viewBox="0 0 219 100" enable-background="new 0 0 219 100" xml:space="preserve">
<g>
	<g opacity="0.25">
		<path fill="#494949" d="M78.3,93.2c0.1-3.5,1.3-6.6,3.4-9.4c0.5-0.6,0.8-1.2,1.2-1.8c0.4-0.7,0.1-1.2-0.7-1.1
			c-0.5,0-1,0.4-1.6,0.5c0-0.1,0.1-0.4,0.1-0.5c1.1-2.3,2.8-4,4.7-5.4c1.7-1.3,3.2-2.8,4.9-4.1c-1.8-3-4-4-7-3
			c-1.7,0.5-3.2,1.3-4.8,2c0,0.1,0,0,0,0c2.8-4.3,5.6-8.5,9.6-12c1.3-1.2,2.8-2.2,4.6-2.6c1.1-0.2,2.2-0.1,3.6-0.2
			c0.4-0.4,1.2-0.8,1-1.9c-0.1-0.2-0.1-0.5-0.2-0.7c-2.6-2.9-4.3-6.2-4.1-10.1c-0.7-0.2-1.4-0.5-2.3-0.8c0.1,0.5,0.2,1,0.4,1.4
			c0.5,1.6,0,2.3-1.6,2.3c-3.2,0-5.8-2.8-4.9-5.9c0.6-2.4,0.2-4.6,0.4-6.8c0-1.3,0.1-2.6,0.4-4c0.2-1.4,1.1-2.6,2-3.8
			c0.2-0.2,0.4-0.7,0.4-1c-0.1-1.4-0.2-2.8-0.5-4.2c0-0.4-0.4-0.7-0.6-1c-1.1-0.7-1.8-1.7-1.8-3.1c0-1.6-0.2-3.2-0.5-4.8
			c-0.1-0.8,0.1-1.4,0.6-2c1.7-1.3,3.1-2.8,5.4-2.8c0.4,0,0.6-0.1,1-0.1c1.4-0.1,2.5-0.5,3.5-1.7c1.3-1.7,3.4-2.4,5.4-2.8
			c0.2,0,0.5-0.1,0.7-0.2c1,0,2,0,3,0c0.6,0.1,1.3,0.2,1.9,0.5c6.4,1.8,9.6,8.5,7.4,15.1c-0.2,0.7-0.7,1.4-0.2,2.3
			c0.1,0.2,0.2,0.6,0.5,0.8c1.8,1.8,3,4,3.4,6.6c0,0.4,0.4,0.7,0.7,1.1c1.1,1.2,2.4,2.2,4.1,1.9c0.2,0,0.5-0.1,0.6-0.2
			c1.2-0.7,3.5-0.6,4.7,0.2c0.1,0.1,0.4,0.1,0.5,0.1c1-0.4,2-0.7,3-1.1c0-1.2,0-1.2,1.2-1.1c0.2,0,0.5-0.1,0.7-0.1
			c2-0.6,4.2-1,6.4-1c3.7,0.1,5.9,2.3,6.1,6c0.1,2.3-0.4,4.4-1,6.5c-0.1,0.2-0.1,0.6-0.1,0.8c0.2,1,0,1.2-1.1,1.1
			c-0.4,1-0.7,1.9-1.1,2.9c-2,4.8-5,8.9-8.5,12.7c-5.5,6.1-11.8,11.3-18.4,16.2c-0.2,0.2-0.6,0.5-0.8,0.7c1.1,0.8,1.8,1.9,2,3.2
			c0.1,1.6-0.4,2.9-1.1,4.2c-1.7,2.9-4.1,5-6.6,7.1c-2.2,1.7-4.4,3.1-6.6,4.7c-0.2,0.1-0.5,0.2-0.6,0.2c0.1-0.2,0.2-0.5,0.4-0.8
			c0.6-1.3,1.4-2.8,1.8-4.2c0.8-3-0.1-5.2-3-6.8c-1.3,1.6-2.8,3.1-4.1,4.9c-1.4,1.9-3.1,3.6-5.3,4.7C90.6,91,90.3,91,90,91.3
			c0.2-0.2,0.2-0.4,0.4-0.5c0.5-0.6,0.7-1.3,0.1-1.8c-0.2-0.1-1,0.2-1.4,0.5l-0.1,0.1c-1.7,1-3.4,2-5,2.9c-1,0.5-2,0.7-3.1,1.1
			C80,93.2,79.1,93.2,78.3,93.2z M121.2,33.6c-0.6-0.1-0.5-0.6-0.4-1c0.2-0.7,0.6-1.3,1-2.3c-1.4,0.1-2.6,0.2-3.8,0.5
			c0.4-0.2,0.7-0.5,1.1-0.7c-1.6-1.8-3-1.3-4.6,0c0.5-1.1,1.6-1.2,2.4-1.7c-0.6-1.2-1.6-0.2-2.4-0.5c0.4-0.2,0.8-0.4,1.2-0.6
			c0.1,0,0.4-0.2,0.2-0.2c0-0.1-0.1-0.4-0.2-0.4c-1.2-0.5-3.7,0.7-4.1,1.9c-0.7,2.5-0.1,4.6,2.3,5.8c1,0.6,2.2,0.7,3.2,1.1
			c0.6,0.2,1.1-0.1,1.6-0.5C119.6,34.6,120.3,34.1,121.2,33.6c1.7-1.1,3.5-2.2,5.3-3.4c-1.2-0.5-2.4-1.1-3.6,0
			C121.8,31.1,120.9,32.1,121.2,33.6z M100.6,67.7c1.6-0.6,3-1.3,4.6-1.9c0.8-0.4,1.1,0,0.8,0.8c-0.8,2.9-2.3,5.4-4.8,7.2
			c-1.2,0.8-2.4,1.8-3.5,2.6c1.3,1.3,2.5,2.5,3.7,3.7c0.1,0,0.2-0.1,0.4-0.2c8.4-5,16.3-10.8,23.5-17.3c4.8-4.3,9.2-8.9,12.7-14.4
			c1.6-2.4,2.9-5,3.5-7.9c0.1-0.4-0.1-0.8-0.2-1.1c-3-3-6-6.1-9.1-9.1c-0.2-0.2-0.7-0.4-1.1-0.2c-2.6,0.6-5,1.8-7.2,3.1
			c-6.5,4-11.8,9.4-16.7,15.1c-0.1,0.2-0.1,0.6-0.1,1c0.4,1.3,1,2.6,1.3,4.1c0.8,3.4,0,5.3-3,7.2c-0.8,0.5-1.7,0.8-2.5,1.3
			c-0.6,0.2-1.2,0.5-1.7,0.8c-0.2,0.1-0.5,0.6-0.5,1C101,65,101.2,66.4,100.6,67.7z M95,33.4c1.2,0.4,2.4,0,3.5-0.5
			c0.6-0.2,1.1-0.7,1.1-1.4c0.1-1.2,1.1-1.9,2.2-1.8c1.1,0.1,1.9,1,1.9,2c0,1.1-0.8,2-2,2c-0.2,0-0.6,0-0.7,0.1
			c-1.9,1.1-3.8,1.8-6.1,1.4c0,0.6-0.1,1-0.1,1.4c-0.1,0.7,0.1,1.1,0.8,1.2c1.2,0.2,2.3,0.5,3.5,0.7c1.4,0.4,2.6-0.2,3.7-1.1
			c0.5-0.4,0.8-1,1-1.4c0.2-1.2,1.1-2,2.2-1.9c1.1,0,1.9,1,1.9,2c0,1.2-1,2-2.2,2c-0.2,0-0.6,0.1-0.8,0.1c0,0.1,0,0.1,0,0.2
			c2.4-0.2,4.7-1,6.7-2.3c0.1-0.1,0.2-0.5,0.2-0.7c-0.1-1.2-0.2-2.4-0.4-3.6c-0.2-1.7,0-3.4,0.7-4.9c0.4-0.7,0.6-1.6,0.7-2.4
			c0.1-0.4,0-0.8-0.1-1.3c0.1,0,0.2,0,0.2,0c0.1,0.7,0.1,1.4,0.2,2c0.8-0.1,1.7-0.2,2.5-0.4c-0.7-1.9-1.7-3.5-3.2-4.7
			c-0.8,0.5-1.7,0.8-2.4,1.3c-0.2,0.1-0.4,0.5-0.4,0.7c0,0.8,0.1,1.7,0.1,2.6c0.1,1.3,0,1.7-1.3,1.8c-2.2,0.4-4.3,0.5-6.6,0.6
			c-0.7,0-1-0.6-1.1-1.2c0-0.8-0.1-1.7-0.1-2.5c0-0.5-0.1-0.7-0.7-0.7c-2.2-0.2-4.3-0.7-6.2-1.9c-0.4,0.2-0.7,0.6-1,0.7
			c0.8,0.8,1.7,1.6,2.5,2.4c-0.7,0.6-1.2,1.1-1.7,1.4c-1-0.8-1.8-1.6-2.8-2.4c-0.7,0.6-1.3,1.1-2,1.7c2.6,0.7,4.1,2.5,4.9,4.9
			c0.1,0.1,0.6,0.4,1,0.2c1.8-0.6,2.9-2.6,2.3-4.6c0-0.1,0-0.4-0.1-0.5c0.1,0,0.2,0,0.4,0c0.1,0.7,0.2,1.4,0.2,2.2
			c-0.2,1.4-1.1,2.5-2.4,3.1c-0.2,0.1-0.6,0.4-0.6,0.6C94.9,31.7,94.9,32.5,95,33.4z M111.8,40c-5.8,3-11.5,3.2-17.5,1.1
			c0,0,0,0-0.1,0.1c-1.2,3.6-0.1,6.7,1.9,9.6c0.1,0.1,0.4,0.2,0.5,0.2c3.5,0.5,6.7-0.4,9.8-2.2c-0.4-0.8-0.7-1.6-1-2.3
			c0.6-0.4,1.1-0.7,1.7-1l0.1,0.1c-0.2,0.2-0.5,0.5-0.7,0.6c-0.2,0.2-0.7,0.4-0.2,0.8c2-2.2,4.1-4.3,6-6.5
			C112.2,40.5,111.9,40.2,111.8,40z M105.7,20.4c0-0.1,0-0.2-0.1-0.2c1.1,0,2.2-0.1,3.2,0c1,0.1,2.8-0.6,3.1-1.4
			c1.2-2.5,1.7-5.2,1.1-7.9c-1.2-5.6-6.4-9.1-12-8.3c-3.6,0.5-6.4,2.2-7.6,5.8c-1.3,3.8-0.7,7.6,0.8,11.2c0.1,0.2,0.5,0.6,0.7,0.6
			c1.8,0.5,3.5,1,5.3,1.3c0.2,0,0.5,0,0.7-0.1c0.7-0.2,1.3-0.6,2-1c0,0.1,0,0.1,0,0.2c-1.7-0.4-3.4-0.6-4.9-1.1
			c-1.8-0.6-3-1.8-3.2-3.7c-0.1-1,0-1.8,0.8-2.4c0.6-0.5,0.8-1,0.8-1.7c0.2-2.8,1.4-4.8,4.2-5.8c1.8-0.6,3.7-0.7,5.5-0.4
			c2,0.4,3.5,1.6,4.2,3.5c0.2,0.6,0.4,1.3,0.6,1.9c0.1,0.4,0.4,0.8,0.5,1.2c0.2,0.6,0.6,1.3,0.7,1.9c0.1,1.9-0.7,3.6-2.3,4.6
			C108.7,19.2,107.1,19.7,105.7,20.4z M97.5,55.1c-0.7,1.2-1.3,2.3-1.9,3.4c-0.7,1.4-0.2,2.6,1.3,3.1c1,0.4,2.3,0.5,3.2,0.2
			c2.5-0.6,4.9-1.7,6.7-3.7c0.5-0.6,1-1.4,1.1-2.2c0.1-1.9-0.4-3.8-1-5.6c-1.6,0.6-3,1.3-4.6,1.7c-1.6,0.4-3.2,0.4-4.9,0.5
			c0.4,0.4,0.8,0.8,1.3,1.1c0.5,0.4,1.1,0.5,1.6,0.8c0,0.1-0.1,0.2-0.1,0.2c-0.7-0.4-1.6-0.6-2.3-1c0,0.7,0,0.7,1.1,2.5
			C98.7,56,98.2,55.7,97.5,55.1z M90.8,87.3c1.4-0.5,3.4-2,4-3.2c0.1-0.1,0.1-0.5,0-0.7c-0.4-0.5-0.8-1-1.3-1.4
			c-0.7,0.6-1.2,1.2-1.9,1.8c-0.1-0.5-0.1-0.6-0.2-1c-1.3,0.8-2.5,1.7-4.1,1.7c0-1.6,0.8-2.8,1.8-4.2c-0.5,0-0.7,0-1.1,0
			c0.7-0.7,1.2-1.3,1.8-1.9c-0.5-0.5-1-0.8-1.4-1.3c-0.1-0.1-0.5-0.2-0.6-0.1c-1.4,1-2.6,2.3-3.5,4.1c0.2-0.1,0.4-0.2,0.5-0.2
			c0.4,0,0.7,0,1.1,0c-0.1,0.4-0.1,0.7-0.2,1c-0.5,0.7-1,1.4-1.4,2.2c-0.8,1.6-1.3,3.2-1.4,5c2-0.1,4-0.7,5.6-1.8
			c0.6-0.4,1.2-0.8,1.8-1.2c0.1-0.1,0.6-0.1,0.6-0.1c0.1,0.2,0.2,0.5,0.2,0.8C91.2,86.8,90.9,87.1,90.8,87.3z M92.8,30.7
			c-1.1-1.9-2.4-3.6-4.8-4.1c-0.2,0-0.7,0.1-0.8,0.4c-0.5,0.8-1,1.7-1.2,2.5c-0.7,2.8-0.2,5.5-0.1,8.3c0,0.1,0.2,0.4,0.4,0.5
			c1,0.5,1.9,0.7,2.9,0.2c0.4-0.1,0.6-0.5,0.8-0.8c-1.9,0.2-2.3,0.2-2.9-0.4c0.2,0,0.5,0,0.7,0.1c1.4,0.2,2-0.1,2.5-1.4
			c0.2-0.6,0.4-1.3,0.6-1.9c0.2-0.7,0.4-1.4-0.6-1.9c-0.1,0-0.1-0.2-0.1-0.4c0.5,0.2,1,0.4,1.4,0.5c0.1-0.1,0.1-0.2,0.2-0.4
			c-0.5-0.5-1-1-1.4-1.6C91.4,30,91.9,31.9,92.8,30.7z M88.8,7.3c0.5,5.3,1.1,10.3,1.6,15.6c1-0.8,1.9-1.4,2.8-2.3
			c0.4-0.4,0.5-1.1,0.4-1.4C92,15.1,91.5,11,93.2,6.7C91.6,7,90.2,7.2,88.8,7.3z M88.6,24.1c1.1-0.5,1.3-1.1,1.2-2.3
			c-0.4-3.2-0.7-6.5-1-9.7c-0.1-1.4-0.4-3-0.5-4.8c-1,0.8-1.7,1.4-2.4,2.2c-0.6,0.6-0.7,1.2-0.6,2c0.2,1.6,0.4,3.1,0.5,4.6
			c0,1.3,0.8,2,1.8,2.6c0.2,0.1,0.5,0.5,0.6,0.8C88.4,21.1,88.5,22.6,88.6,24.1z M94.8,59.6c-0.1,0.7-0.4,1.4-0.5,2.2
			c-0.1,1.7,0,3.4,0.8,4.8c1.1,1.8,3.4,2.3,4.7,0.8c0.7-0.8,0.5-1.8,0.5-2.8c-0.1-0.7-0.2-1.4-0.4-2.2
			C96.3,62.3,95.4,61.7,94.8,59.6z M107.1,20.5c0.1,0.8,0.2,1.6,0.2,2.3c0.1,1-0.1,1.2-1.1,1.3c-1.3,0.1-1.6-0.1-1.7-1.1
			c-0.1-0.8-0.1-1.6-0.2-2.4c-0.5,0-1,0.1-1.3,0.1c-0.6,0-0.8,0.4-0.8,1c0.1,1.3,0.1,2.8,0.2,4.1c0,0.6,0.4,1,1,0.8
			c1.8-0.1,3.5-0.2,5.3-0.4c0.6,0,0.8-0.4,0.8-1c-0.1-1.4-0.1-2.8-0.2-4.2c0-0.6-0.4-0.8-1-0.8C108.1,20.4,107.7,20.5,107.1,20.5z
			 M86,38.4c-1.1,2-0.5,5.3,1.2,6.2c-0.1-0.6-0.4-1.1-0.5-1.7c0.1,0,0.1,0,0.2-0.1c0.5,0.7,0.5,1.8,1.6,2.5c-0.4-1-0.7-1.7-1-2.4
			c0.1,0,0.1,0,0.2-0.1c0.5,0.8,1,1.6,1.3,2.4c0.1,0,0.2-0.1,0.4-0.1c-0.1-0.4-0.2-0.7-0.4-1.1C89,43.7,89,43.3,88.9,43
			c0.1,0,0.1,0,0.2,0c0.4,0.8,0.6,1.6,1,2.4c0.7-0.2,0.8-0.7,0.7-1.2c-0.1-0.5-0.5-1.1-0.4-1.6c0-0.5,0.4-1,0.6-1.6
			c0.4,0.2,0.7,0.5,1.1,0.7c0.2,0.1,0.6,0.1,1,0.2c0-0.4,0-0.7-0.1-0.8c-0.7-1-1.4-1.8-2.3-2.8C88.8,39.4,87.3,39,86,38.4z M91.6,79
			c1-1.2,1.9-2.5,2.8-3.7c-1.2-1.2-2.3-2.4-3.4-3.4c-1.1,1.1-2.2,2.2-3.2,3.2C89,76.5,90.2,77.7,91.6,79z M95.4,74.2
			c1.2-1.6,2.4-3.1,3.6-4.8c-2.6,0.6-4.3-0.5-5.3-2.9c-0.8,1.3-1.6,2.5-2.3,3.7C92.7,71.6,93.9,72.9,95.4,74.2z M112,37.3
			c-3.4,2.4-7,3-10.8,2.9c-0.4,0-0.7,0.1-1.1,0.2c-1.7,0.6-3.4,0.6-5,0c-0.1,0-0.2,0-0.5-0.1c0.5,0.4,1.1,0.7,1.7,0.8
			c2.5,0.7,5,0.8,7.6,0.6c2.4-0.2,4.8-0.7,7-2C111.8,39.4,112.3,38.7,112,37.3z M107.1,12.4c1,0,1.8-0.7,1.8-1.8
			c0-1.3-0.6-2.4-1.7-3.1c-1.1-0.7-2.2-0.8-3.4-0.4c-0.7,0.4-1.1,0.8-1,1.7C103.2,10.4,105.4,12.4,107.1,12.4z M96.4,83.9
			c1.2-1.1,2.3-2.2,3.2-3.2c-1-1.1-2-2.2-3.1-3.2c-1.2,1-2.5,1.9-3.7,2.9C94.2,81.7,95.4,82.9,96.4,83.9z M91.8,34.6
			c-0.1,0-0.1,0-0.2,0c-0.1,0.6-0.4,1.2-0.2,1.6c0.8,2.2,2.3,3.8,4.7,4.3c3,0.7,5.4-0.6,7.7-2.3c0.2-0.1,0.2-0.5,0.5-0.7
			c-0.4,0-0.7,0-1,0.1c-1.2,0.6-2.4,1.3-3.7,1.7c-3.2,1-5.8-0.2-7.2-3.4C92.1,35.5,91.9,35.1,91.8,34.6z M112.3,34.6
			c0,0.1,0.1,0.5,0.1,0.7c0.1,1.2,0.1,2.4,0.2,3.7c0,0.4,0,0.8,0,1.2c0.1,0,0.1,0,0.2,0c1.4-1.3,2.9-2.5,4.1-3.7
			C115.4,35.9,113.8,35.3,112.3,34.6z M92,32.9c2.2,2.9,6.1,2,8,0.8c0.1-0.1,0.2-0.5,0.2-0.6c-0.1-0.1-0.5-0.2-0.7-0.2
			c-0.1,0-0.4,0.1-0.5,0.2c-2.3,1.1-4.4,1.3-6.4-0.7C92.4,32.5,92.2,32.8,92,32.9z M104.8,20.7c0.1,1,0.1,1.8,0.2,2.6
			c0.1,1,0.8,0.6,1.3,0.6c0.5,0,0.8-0.2,0.7-0.8c-0.1-0.8-0.2-1.6-0.4-2.4C106.2,20.7,105.6,20.7,104.8,20.7z M100.8,22.6
			c0.1-0.5,0.1-0.7-0.6-0.8c-1.9-0.5-3.8-1.1-5.9-1.6c-0.1,0-0.4,0-0.5,0C94.5,21.3,98.5,22.7,100.8,22.6z M101.6,21.1
			c-0.1,0.4-0.4,0.7-0.4,1.1c0,1.3,0.1,2.6,0.2,4c0,0.8,0.5,1.1,1.2,1C101.7,25.1,102.2,23.1,101.6,21.1z M92,33.7
			c-0.1,0-0.1,0.1-0.2,0.1c0.6,1.2,1.1,2.4,1.7,3.6c0.1,0,0.2,0,0.4-0.1c0.1-0.8,0.1-1.6,0.2-2.3c-0.4-0.2-0.7-0.4-1.1-0.6
			C92.6,34.2,92.4,34,92,33.7z M109.3,12.7c-0.1,0-0.2,0-0.4,0c-0.2,0.4-0.6,0.7-0.7,1.1c-0.1,0.6,0.4,1,1,1c0.6,0,1.1-0.4,1-1
			C110,13.4,109.6,13.1,109.3,12.7z M109.6,21.4c2.2-1,2.9-1.6,2.9-2.3c-1,0.5-1.8,0.8-2.6,1.4C109.8,20.7,109.8,21,109.6,21.4z
			 M94.2,31c-0.6,0.4-1,0.5-1.6,0.8c0.6,0.5,1,0.8,1.4,1.2c0.1,0,0.1-0.1,0.2-0.1C94.2,32.3,94.2,31.8,94.2,31z M92,38.1
			c-0.1,1.2,0.8,2.4,2,2.2C93.2,39.5,92.6,38.8,92,38.1z M91,38.4c0.1,0,0.2-0.1,0.5-0.1c-0.1-0.6-0.2-1.1-0.4-1.7
			c-0.1,0-0.2,0-0.4,0.1C90.9,37.3,90.9,37.8,91,38.4z"/>
		<path fill="#FFFFFF" d="M100.6,67.7c0.6-1.4,0.4-2.8,0.1-4.2c0-0.2,0.2-0.7,0.5-1c0.5-0.4,1.1-0.6,1.7-0.8
			c0.8-0.5,1.7-0.8,2.5-1.3c3-1.8,3.8-3.7,3-7.2c-0.4-1.3-1-2.8-1.3-4.1c-0.1-0.2-0.1-0.7,0.1-1c4.9-5.8,10.2-11.2,16.7-15.1
			c2.3-1.3,4.7-2.5,7.2-3.1c0.4-0.1,0.8,0,1.1,0.2c3,3,6.1,6,9.1,9.1c0.2,0.2,0.4,0.7,0.2,1.1c-0.6,2.9-1.9,5.4-3.5,7.9
			c-3.5,5.5-7.9,10.1-12.7,14.4c-7.3,6.5-15.3,12.2-23.5,17.3c-0.1,0.1-0.4,0.1-0.4,0.2c-1.2-1.2-2.5-2.5-3.7-3.7
			c1.1-0.8,2.3-1.8,3.5-2.6c2.5-1.8,4-4.3,4.8-7.2c0.2-1,0-1.2-0.8-0.8C103.6,66.4,102.2,67.1,100.6,67.7z M118.5,47.1
			c0,3.4,2.6,6.1,6,6.1c3.4,0,6.1-2.8,6.1-6c0-3.4-2.6-6.1-6-6.1C121.3,40.9,118.5,43.7,118.5,47.1z"/>
		<path fill="#FFFFFF" d="M95,33.4c-0.1-0.8-0.2-1.7-0.2-2.4c0-0.2,0.4-0.5,0.6-0.6c1.3-0.7,2.2-1.7,2.4-3.1
			c0.1-0.7-0.1-1.4-0.2-2.2c-0.1,0-0.2,0-0.4,0c0,0.1,0,0.4,0.1,0.5c0.6,1.9-0.5,4-2.3,4.6c-0.2,0.1-0.8-0.1-1-0.2
			c-0.8-2.4-2.3-4.1-4.9-4.9c0.7-0.6,1.3-1.1,2-1.7c0.8,0.7,1.8,1.6,2.8,2.4c0.5-0.4,1-0.8,1.7-1.4c-0.8-0.8-1.7-1.6-2.5-2.4
			c0.2-0.2,0.6-0.5,1-0.7c1.9,1.2,4.1,1.7,6.2,1.9c0.5,0,0.7,0.2,0.7,0.7c0,0.8,0.1,1.7,0.1,2.5c0,0.7,0.4,1.3,1.1,1.2
			c2.2-0.1,4.4-0.2,6.6-0.6c1.2-0.1,1.3-0.6,1.3-1.8c0-0.8-0.1-1.7-0.1-2.6c0-0.2,0.2-0.6,0.4-0.7c0.7-0.5,1.6-0.8,2.4-1.3
			c1.4,1.3,2.5,2.9,3.2,4.7c-1,0.1-1.8,0.2-2.5,0.4c-0.1-0.6-0.1-1.3-0.2-2c-0.1,0-0.2,0-0.2,0c0,0.5,0.1,1,0.1,1.3
			c-0.2,0.8-0.5,1.6-0.7,2.4c-0.7,1.6-1,3.2-0.7,4.9c0.2,1.2,0.2,2.4,0.4,3.6c0,0.2-0.1,0.6-0.2,0.7c-2,1.2-4.3,2-6.7,2.3
			c0-0.1,0-0.1,0-0.2c0.2,0,0.6-0.1,0.8-0.1c1.2,0,2.2-0.8,2.2-2c0-1.1-0.8-2-1.9-2c-1.1-0.1-1.9,0.7-2.2,1.9
			c-0.1,0.6-0.5,1.2-1,1.4c-1.1,0.8-2.3,1.4-3.7,1.1c-1.2-0.2-2.3-0.5-3.5-0.7c-0.7-0.1-1-0.5-0.8-1.2c0.1-0.5,0.1-0.8,0.1-1.4
			c2.3,0.4,4.2-0.4,6.1-1.4c0.2-0.1,0.5-0.1,0.7-0.1c1.2,0,2-1,2-2c0-1.1-0.8-1.9-1.9-2c-1.1-0.1-2.2,0.7-2.2,1.8
			c0,0.7-0.5,1.2-1.1,1.4C97.4,33.4,96.2,33.7,95,33.4z M106.5,30.5c1.2-0.2,2.3-0.5,3.5-0.7c-0.1-0.8-0.2-1.4-0.4-2
			c-1.2,0.2-2.3,0.4-3.4,0.6C106.3,29.1,106.4,29.7,106.5,30.5z M106.6,32.5c1.3-0.2,2.5-0.4,3.7-0.6c-0.1-0.5-0.2-0.7-0.2-1
			c-1.2,0.2-2.3,0.5-3.5,0.7C106.6,31.8,106.6,32.1,106.6,32.5z"/>
		<path fill="#FFFFFF" d="M111.8,40c0.1,0.2,0.4,0.5,0.6,0.8c-2,2.2-4,4.3-6,6.5c-0.5-0.5,0-0.6,0.2-0.8c0.2-0.2,0.5-0.5,0.7-0.6
			l-0.1-0.1c-0.6,0.4-1.1,0.6-1.7,1c0.4,0.7,0.6,1.4,1,2.3c-3.1,1.8-6.4,2.6-9.8,2.2c-0.2,0-0.4-0.1-0.5-0.2c-2-2.9-3-6-1.9-9.6
			c0-0.1,0.1-0.1,0.1-0.1C100.3,43.2,106,43,111.8,40z M104.6,43.5c0.8,0.7,2,0.7,2.8,0C106.4,43.5,105.4,43.5,104.6,43.5z"/>
		<path fill="#FFFFFF" d="M105.7,20.4c1.4-0.6,3-1.2,4.3-2c1.6-1,2.4-2.6,2.3-4.6c0-0.6-0.5-1.3-0.7-1.9c-0.1-0.4-0.4-0.8-0.5-1.2
			c-0.2-0.6-0.4-1.3-0.6-1.9c-0.7-1.9-2.2-3.1-4.2-3.5c-1.9-0.4-3.7-0.2-5.5,0.4c-2.8,1-4,3-4.2,5.8c0,0.7-0.2,1.3-0.8,1.7
			c-0.8,0.6-1.1,1.4-0.8,2.4c0.4,1.9,1.6,3.2,3.2,3.7c1.6,0.5,3.2,0.7,4.9,1.1c0-0.1,0-0.1,0-0.2c-0.7,0.4-1.3,0.6-2,1
			c-0.2,0.1-0.5,0.1-0.7,0.1c-1.8-0.5-3.5-0.8-5.3-1.3c-0.4-0.1-0.7-0.4-0.7-0.6c-1.6-3.6-2-7.3-0.8-11.2c1.2-3.6,4-5.2,7.6-5.8
			c5.8-0.8,10.8,2.6,12,8.3c0.6,2.8,0.1,5.4-1.1,7.9c-0.4,0.8-2.2,1.6-3.1,1.4c-1.1-0.1-2.2,0-3.2,0
			C105.6,20.2,105.7,20.3,105.7,20.4z"/>
		<path fill="#FFFFFF" d="M97.5,55.1c0.7,0.5,1.1,0.8,1.6,1.2C98,54.6,98,54.6,98,53.8c0.7,0.4,1.6,0.6,2.3,1c0-0.1,0.1-0.2,0.1-0.2
			c-0.6-0.2-1.1-0.5-1.6-0.8c-0.5-0.4-0.8-0.7-1.3-1.1c1.7-0.1,3.4-0.1,4.9-0.5c1.6-0.4,3-1.1,4.6-1.7c0.6,1.7,1.1,3.6,1,5.6
			c0,0.7-0.5,1.6-1.1,2.2c-1.8,1.9-4.2,3-6.7,3.7c-1,0.2-2.2,0-3.2-0.2c-1.6-0.5-2-1.7-1.3-3.1C96.2,57.4,96.9,56.3,97.5,55.1z"/>
		<path fill="#FFFFFF" d="M90.8,87.3c0.1-0.2,0.2-0.5,0.2-0.6c0-0.2-0.1-0.6-0.2-0.8c0-0.1-0.5,0-0.6,0.1c-0.6,0.4-1.2,0.8-1.8,1.2
			c-1.7,1.1-3.5,1.7-5.6,1.8c0-1.8,0.5-3.5,1.4-5c0.5-0.7,1-1.4,1.4-2.2c0.1-0.2,0.1-0.6,0.2-1c-0.4,0-0.7,0-1.1,0
			c-0.1,0-0.2,0.1-0.5,0.2c0.8-1.8,1.9-3.1,3.5-4.1c0.1-0.1,0.5,0,0.6,0.1c0.5,0.4,1,0.8,1.4,1.3c-0.6,0.6-1.2,1.2-1.8,1.9
			c0.5,0,0.7,0,1.1,0c-1,1.3-1.8,2.5-1.8,4.2c1.6,0,2.8-0.8,4.1-1.7c0.1,0.4,0.1,0.6,0.2,1c0.6-0.6,1.2-1.2,1.9-1.8
			c0.4,0.5,0.8,0.8,1.3,1.4c0.1,0.1,0.1,0.5,0,0.7C94.2,85.3,92.2,86.8,90.8,87.3z"/>
		<path fill="#FFFFFF" d="M121.2,33.6c-0.7,0.5-1.6,1-2.3,1.6c-0.5,0.4-1,0.7-1.6,0.5c-1.1-0.4-2.3-0.5-3.2-1.1
			c-2.3-1.3-3-3.2-2.3-5.8c0.4-1.3,2.9-2.5,4.1-1.9c0.1,0,0.2,0.2,0.2,0.4c0,0-0.1,0.2-0.2,0.2c-0.5,0.1-0.8,0.2-1.2,0.6
			c0.8,0.1,1.7-0.7,2.4,0.5c-0.8,0.4-2,0.5-2.4,1.7c1.6-1.3,3-1.8,4.6,0c-0.4,0.2-0.7,0.5-1.1,0.7c1.2-0.1,2.4-0.2,3.8-0.5
			c-0.5,1-0.7,1.6-1,2.3C120.7,33,120.6,33.5,121.2,33.6L121.2,33.6z"/>
		<path fill="#FFFFFF" d="M92.8,30.7c-1,1.2-1.6-0.6-2.4-0.4c0.5,0.5,1,1,1.4,1.6c-0.1,0.1-0.1,0.2-0.2,0.4
			c-0.5-0.1-0.8-0.4-1.4-0.5c0,0.1,0,0.2,0.1,0.4c1,0.4,0.8,1.1,0.6,1.9c-0.2,0.6-0.4,1.3-0.6,1.9c-0.5,1.3-1.1,1.7-2.5,1.4
			c-0.2,0-0.4,0-0.7-0.1c0.7,0.6,1,0.6,2.9,0.4c-0.2,0.2-0.5,0.6-0.8,0.8c-1,0.4-2,0.2-2.9-0.2c-0.1-0.1-0.4-0.2-0.4-0.5
			c-0.1-2.8-0.6-5.5,0.1-8.3c0.2-0.8,0.7-1.7,1.2-2.5c0.1-0.2,0.6-0.4,0.8-0.4C90.4,27.1,91.8,28.7,92.8,30.7z"/>
		<path fill="#FFFFFF" d="M88.8,7.3c1.4-0.2,2.9-0.4,4.3-0.6c-1.7,4.3-1.2,8.4,0.2,12.5c0.1,0.4,0,1.2-0.4,1.4
			c-0.8,0.8-1.7,1.4-2.8,2.3C89.8,17.8,89.2,12.6,88.8,7.3z"/>
		<path fill="#FFFFFF" d="M88.6,24.1c-0.1-1.6-0.4-3-0.5-4.6c0-0.4-0.4-0.7-0.6-0.8c-1-0.6-1.8-1.3-1.8-2.6c0-1.6-0.2-3.1-0.5-4.6
			c-0.1-0.8,0-1.4,0.6-2c0.7-0.6,1.4-1.3,2.4-2.2c0.2,1.8,0.4,3.2,0.5,4.8c0.4,3.2,0.6,6.5,1,9.7C90,23.1,89.7,23.7,88.6,24.1z"/>
		<path fill="#FFFFFF" d="M94.8,59.6c0.6,2.2,1.7,2.8,5.2,3c0.1,0.7,0.2,1.4,0.4,2.2c0.1,1,0.2,1.9-0.5,2.8c-1.2,1.4-3.6,1-4.7-0.8
			c-0.8-1.6-1-3.1-0.8-4.8C94.3,61,94.5,60.3,94.8,59.6z"/>
		<path fill="#FFFFFF" d="M107.1,20.5c0.5,0,0.8,0,1.3-0.1c0.6,0,1,0.2,1,0.8c0.1,1.4,0.1,2.8,0.2,4.2c0,0.6-0.2,0.8-0.8,1
			c-1.8,0.1-3.5,0.2-5.3,0.4c-0.6,0-1-0.2-1-0.8c-0.1-1.3-0.1-2.8-0.2-4.1c0-0.6,0.2-1,0.8-1c0.4,0,0.8-0.1,1.3-0.1
			c0.1,0.8,0.1,1.7,0.2,2.4c0.1,1,0.5,1.2,1.7,1.1c1-0.1,1.2-0.4,1.1-1.3C107.4,22.1,107.2,21.4,107.1,20.5z"/>
		<path fill="#FFFFFF" d="M86,38.4c1.4,0.6,2.9,1,4.3-0.1c0.7,1,1.6,1.8,2.3,2.8c0.1,0.2,0.1,0.6,0.1,0.8c-0.4-0.1-0.6-0.1-1-0.2
			c-0.4-0.1-0.7-0.5-1.1-0.7c-0.2,0.5-0.5,1-0.6,1.6c0,0.5,0.2,1.1,0.4,1.6c0.1,0.6,0.1,1-0.7,1.2c-0.4-0.8-0.6-1.6-1-2.4
			c-0.1,0-0.1,0-0.2,0c0.1,0.4,0.1,0.7,0.2,1.1c0.1,0.4,0.2,0.7,0.4,1.1c-0.1,0-0.2,0.1-0.4,0.1c-0.5-0.8-1-1.6-1.3-2.4
			c-0.1,0-0.1,0-0.2,0.1c0.2,0.7,0.6,1.4,1,2.4c-1.1-0.6-1.1-1.7-1.6-2.5c-0.1,0-0.1,0-0.2,0.1c0.1,0.5,0.4,1.1,0.5,1.7
			C85.4,43.7,84.9,40.5,86,38.4z"/>
		<path fill="#FFFFFF" d="M91.6,79c-1.3-1.3-2.6-2.6-3.8-3.8c1.1-1.1,2.2-2.2,3.2-3.2c1,1,2.2,2.2,3.4,3.4
			C93.4,76.5,92.5,77.8,91.6,79z"/>
		<path fill="#FFFFFF" d="M95.4,74.2c-1.3-1.3-2.6-2.6-4-4c0.7-1.2,1.4-2.4,2.3-3.7c1,2.4,2.6,3.5,5.3,2.9
			C97.6,71.1,96.6,72.7,95.4,74.2z"/>
		<path fill="#FFFFFF" d="M112,37.3c0.2,1.2-0.2,2-1.1,2.5c-2.2,1.3-4.4,1.8-7,2c-2.5,0.2-5.2,0.1-7.6-0.6c-0.6-0.1-1.1-0.5-1.7-0.8
			c0.1,0,0.2,0,0.5,0.1c1.7,0.6,3.4,0.6,5,0c0.4-0.1,0.7-0.2,1.1-0.2C105.1,40.5,108.7,39.7,112,37.3z"/>
		<path fill="#FFFFFF" d="M107.1,12.4c-1.7,0-4-1.9-4.2-3.6c-0.1-0.8,0.2-1.3,1-1.7c1.2-0.6,2.3-0.4,3.4,0.4
			c1.1,0.7,1.7,1.8,1.7,3.1C108.9,11.6,108.1,12.4,107.1,12.4z"/>
		<path fill="#FFFFFF" d="M96.4,83.9c-1.1-1.1-2.3-2.4-3.6-3.6c1.2-1,2.5-1.9,3.7-2.9c1.1,1.1,2.2,2.2,3.1,3.2
			C98.7,81.8,97.6,82.9,96.4,83.9z"/>
		<path fill="#FFFFFF" d="M91.8,34.6c0.2,0.5,0.4,1,0.6,1.4c1.4,3.1,4,4.3,7.2,3.4c1.3-0.4,2.4-1.2,3.7-1.7c0.2-0.1,0.6,0,1-0.1
			c-0.1,0.2-0.2,0.6-0.5,0.7c-2.3,1.6-4.7,2.9-7.7,2.3c-2.4-0.5-3.8-2.2-4.7-4.3c-0.1-0.5,0.1-1.1,0.2-1.6
			C91.6,34.5,91.6,34.6,91.8,34.6z"/>
		<path fill="#FFFFFF" d="M112.3,34.6c1.6,0.7,3.1,1.3,4.7,2c-1.2,1.1-2.6,2.4-4.1,3.7c-0.1,0-0.1,0-0.2,0c0-0.4,0-0.8,0-1.2
			c-0.1-1.2-0.1-2.4-0.2-3.7C112.4,35.1,112.3,34.7,112.3,34.6z"/>
		<path fill="#FFFFFF" d="M92,32.9c0.2-0.2,0.5-0.4,0.7-0.6c1.9,1.9,4.2,1.7,6.4,0.7c0.1-0.1,0.4-0.2,0.5-0.2c0.2,0,0.6,0.1,0.7,0.2
			c0.1,0.1,0,0.6-0.2,0.6C98.1,35.1,94,35.8,92,32.9z"/>
		<path fill="#FFFFFF" d="M121.2,33.6c-0.2-1.4,0.6-2.5,1.6-3.4c1.2-1,2.5-0.4,3.6,0C124.7,31.3,122.9,32.4,121.2,33.6L121.2,33.6z"
			/>
		<path fill="#FFFFFF" d="M104.8,20.7c0.7,0,1.3,0,1.9,0c0.1,0.8,0.2,1.6,0.4,2.4c0.1,0.6-0.2,0.8-0.7,0.8c-0.5,0-1.2,0.4-1.3-0.6
			C105,22.3,104.8,21.6,104.8,20.7z"/>
		<path fill="#FFFFFF" d="M100.8,22.6c-2.4,0.2-6.4-1.2-7-2.5c0.2,0,0.4,0,0.5,0c1.9,0.5,3.8,1.1,5.9,1.6
			C100.9,21.7,100.9,22.1,100.8,22.6z"/>
		<path fill="#FFFFFF" d="M101.6,21.1c0.6,2,0.1,4.1,1,5.9c-0.7,0.1-1.1-0.2-1.2-1c-0.1-1.3-0.1-2.6-0.2-4
			C101.2,21.9,101.5,21.5,101.6,21.1z"/>
		<path fill="#FFFFFF" d="M92,33.7c0.4,0.2,0.6,0.5,1,0.7c0.4,0.2,0.7,0.4,1.1,0.6c-0.1,0.7-0.1,1.6-0.2,2.3c-0.1,0-0.2,0-0.4,0.1
			c-0.6-1.2-1.1-2.4-1.7-3.6C91.9,33.7,92,33.7,92,33.7z"/>
		<path fill="#FFFFFF" d="M109.3,12.7c0.2,0.4,0.7,0.7,0.7,1.1c0.1,0.6-0.4,1-1,1s-1-0.4-1-1c0.1-0.4,0.5-0.7,0.7-1.1
			C109,12.7,109.2,12.7,109.3,12.7z"/>
		<path fill="#FFFFFF" d="M109.6,21.4c0.1-0.4,0-0.7,0.2-0.8c0.8-0.5,1.8-1,2.6-1.4C112.5,19.9,111.8,20.4,109.6,21.4z"/>
		<path fill="#FFFFFF" d="M94.2,31c0,0.7,0.1,1.3,0.1,1.9c-0.1,0-0.1,0.1-0.2,0.1c-0.5-0.4-0.8-0.7-1.4-1.2
			C93.2,31.5,93.6,31.3,94.2,31z"/>
		<path fill="#FFFFFF" d="M92,38.1c0.6,0.7,1.2,1.4,2,2.2C92.7,40.5,91.9,39.3,92,38.1z"/>
		<path fill="#FFFFFF" d="M91,38.4c-0.1-0.6-0.2-1.1-0.4-1.7c0.1,0,0.2,0,0.4-0.1c0.1,0.6,0.2,1.1,0.4,1.7
			C91.4,38.3,91.3,38.4,91,38.4z"/>
		<path fill="#494949" d="M118.5,47.1c0-3.4,2.8-6,6.1-6s6,2.8,6,6.1c0,3.4-2.8,6.1-6.1,6C121.3,53.2,118.5,50.4,118.5,47.1z
			 M124.7,43c-2.3,0-4.2,1.8-4.2,4.1c0,2.3,1.8,4.1,4.1,4.1c2.3,0,4.2-1.8,4.2-4.1C128.7,44.8,126.9,43,124.7,43z"/>
		<path fill="#494949" d="M106.5,30.5c-0.1-0.8-0.2-1.4-0.2-2.2c1.2-0.2,2.3-0.4,3.4-0.6c0.1,0.6,0.2,1.3,0.4,2
			C108.8,30.1,107.7,30.3,106.5,30.5z"/>
		<path fill="#494949" d="M106.6,32.5c0-0.4,0-0.6,0-0.8c1.2-0.2,2.3-0.5,3.5-0.7c0.1,0.2,0.1,0.5,0.2,1
			C109,32.1,107.8,32.3,106.6,32.5z"/>
		<path fill="#494949" d="M104.6,43.5c1,0,1.9,0,2.8,0C106.6,44.2,105.3,44.2,104.6,43.5z"/>
		<path fill="#FFFFFF" d="M124.7,43c2.3,0,4.1,1.8,4.1,4.1c0,2.3-1.9,4.1-4.2,4.1c-2.3,0-4.1-1.9-4.1-4.1
			C120.6,44.8,122.4,43,124.7,43z"/>
	</g>
	<text transform="matrix(1 0 0 1 7.1714 75.2139)" fill="#CC2029" font-family="'Calibri-Bold'" font-size="46.2641">So</text>
	<text transform="matrix(1 0 0 1 53.8867 75.2139)" fill="#CC2029" font-family="'Calibri-Bold'" font-size="46.2641">ft</text>
	<text transform="matrix(1 0 0 1 82.8281 75.2139)" fill="#CC2029" font-family="'Calibri-Bold'" font-size="46.2641">o</text>
	<text transform="matrix(1 0 0 1 107.6865 75.2139)" fill="#4B494A" font-family="'Calibri-Bold'" font-size="46.2641">nauts</text>
	<g opacity="0.9">
		<line fill="none" stroke="#CC2029" stroke-width="2" stroke-miterlimit="10" x1="94.2" y1="81.5" x2="237.2" y2="81.5"/>
		<line fill="none" stroke="#4B494A" stroke-width="2" stroke-miterlimit="10" x1="-31.7" y1="81.5" x2="111.3" y2="81.5"/>
	</g>
	<text transform="matrix(1 0 0 1 56.0518 95.5469)" fill="#4B494A" font-family="'Calibri-Light'" font-size="10.7822">Solutions </text>
	<text transform="matrix(1 0 0 1 99.165 95.5469)" fill="#4B494A" font-family="'Calibri-Light'" font-size="10.7822">y</text>
	<text transform="matrix(1 0 0 1 103.8477 95.5469)" fill="#4B494A" font-family="'Calibri-Light'" font-size="10.7822">ou </text>
	<text transform="matrix(1 0 0 1 117.8984 95.5469)" fill="#4B494A" font-family="'Calibri-Light'" font-size="10.7822">c</text>
	<text transform="matrix(1 0 0 1 122.4609 95.5469)" fill="#4B494A" font-family="'Calibri-Light'" font-size="10.7822">an </text>
	<text transform="matrix(1 0 0 1 135.9111 95.5469)" fill="#4B494A" font-family="'Calibri-Light'" font-size="10.7822">r</text>
	<text transform="matrix(1 0 0 1 139.6338 95.5469)" fill="#4B494A" font-family="'Calibri-Light'" font-size="10.7822">ely on</text>
</g>
</svg>
